<svg xmlns="http://www.w3.org/2000/svg" version="1.1" xmlns:xlink="http://www.w3.org/1999/xlink" xmlns:svgjs="http://svgjs.dev/svgjs" width="1500" height="995" viewBox="0 0 1500 995"><g transform="matrix(1,0,0,1,-0.3381964038168235,0.40283400809715886)"><svg viewBox="0 0 372 247" data-background-color="#ffffff" preserveAspectRatio="xMidYMid meet" height="995" width="1500" xmlns="http://www.w3.org/2000/svg" xmlns:xlink="http://www.w3.org/1999/xlink"><g id="tight-bounds" transform="matrix(1,0,0,1,0.083872708146572,-0.09999999999999432)"><svg viewBox="0 0 371.83225458370686 247.2" height="247.2" width="371.83225458370686"><g><svg viewBox="0 0 395.52 262.94799010769907" height="247.2" width="371.83225458370686"><g transform="matrix(1,0,0,1,0,194.94238558792506)"><svg viewBox="0 0 395.52 68.00560451977402" height="68.00560451977402" width="395.52"><g id="textblocktransform"><svg viewBox="0 0 395.52 68.00560451977402" height="68.00560451977402" width="395.52" id="textblock"><g><svg viewBox="0 0 395.52 68.00560451977402" height="68.00560451977402" width="395.52"><g transform="matrix(1,0,0,1,0,0)"><svg width="395.52" viewBox="0 -29.5 265.49 45.65" height="68.00560451977402" data-palette-color="#336a86"><path d="M1.5 0L0 0 0-29.5 1.5-29.5 1.5 0ZM9 0L7.5 0 7.5-29.5 9-29.5 9 0ZM12 0L10.5 0 10.5-29.5 12-29.5 12 0ZM19.5 0L18 0 18-29.5 19.5-29.5 19.5 0ZM27 0L25.5 0 25.5-29.5 27-29.5 27 0ZM33 0L28.5 0 28.5-29.5 33-29.5 33 0ZM39 0L34.5 0 34.5-29.5 39-29.5 39 0ZM42 0L40.5 0 40.5-29.5 42-29.5 42 0ZM49.5 0L48 0 48-29.5 49.5-29.5 49.5 0ZM52.5 0L51 0 51-29.5 52.5-29.5 52.5 0ZM27.65 16.15L27.65 16.15Q26.4 16.15 25.45 15.6L25.45 15.6Q24.5 15 23.95 14L23.95 14Q23.4 13 23.4 11.7L23.4 11.7Q23.4 10.45 23.95 9.45L23.95 9.45Q24.5 8.45 25.45 7.85L25.45 7.85Q26.4 7.3 27.65 7.3L27.65 7.3Q28.65 7.3 29.5 7.7L29.5 7.7Q30.3 8.1 30.85 8.85L30.85 8.85 30 9.7 29.9 9.8 29.8 9.7Q29.8 9.55 29.7 9.4L29.7 9.4Q29.65 9.3 29.45 9.1L29.45 9.1Q29.05 8.75 28.6 8.6L28.6 8.6Q28.1 8.4 27.5 8.4L27.5 8.4Q26.75 8.4 26.15 8.8L26.15 8.8Q25.5 9.2 25.15 9.95L25.15 9.95Q24.75 10.65 24.75 11.6L24.75 11.6Q24.75 12.55 25.15 13.35L25.15 13.35Q25.55 14.1 26.2 14.5L26.2 14.5Q26.9 14.95 27.7 14.95L27.7 14.95Q29 14.95 29.95 13.9L29.95 13.9 30.7 14.8Q29.45 16.15 27.65 16.15ZM55.5 0L54 0 54-29.5 55.5-29.5 55.5 0ZM63 0L61.5 0 61.5-29.5 63-29.5 63 0ZM66 0L64.5 0 64.5-29.5 66-29.5 66 0ZM73.5 0L72 0 72-29.5 73.5-29.5 73.5 0ZM81 0L79.5 0 79.5-29.5 81-29.5 81 0ZM87 0L82.5 0 82.5-29.5 87-29.5 87 0ZM90 0L88.5 0 88.5-29.5 90-29.5 90 0ZM93 0L91.5 0 91.5-29.5 93-29.5 93 0ZM103.5 0L99 0 99-29.5 103.5-29.5 103.5 0ZM106.5 0L105 0 105-29.5 106.5-29.5 106.5 0ZM77.7 15.95L77.7 3.6 79.2 3.6 79.2 3.7Q79.05 3.85 79.05 3.95L79.05 3.95Q79 4.1 79 4.4L79 4.4 79 8.95Q79.5 8.2 80.25 7.7L80.25 7.7Q81 7.25 81.8 7.25L81.8 7.25Q83 7.25 83.7 8.1L83.7 8.1Q84.4 8.95 84.4 10.8L84.4 10.8 84.4 15.95 83.1 15.95 83.1 10.85Q83.1 9.55 82.65 9L82.65 9Q82.2 8.4 81.5 8.4L81.5 8.4Q80.9 8.4 80.35 8.75L80.35 8.75Q79.75 9.05 79.4 9.7L79.4 9.7Q79 10.3 79 11.05L79 11.05 79 15.95 77.7 15.95ZM109.5 0L108 0 108-29.5 109.5-29.5 109.5 0ZM117 0L115.5 0 115.5-29.5 117-29.5 117 0ZM120 0L118.5 0 118.5-29.5 120-29.5 120 0ZM127.5 0L126 0 126-29.5 127.5-29.5 127.5 0ZM135 0L133.5 0 133.5-29.5 135-29.5 135 0ZM141 0L136.5 0 136.5-29.5 141-29.5 141 0ZM144 0L142.5 0 142.5-29.5 144-29.5 144 0ZM147 0L145.5 0 145.5-29.5 147-29.5 147 0ZM154.5 0L153 0 153-29.5 154.5-29.5 154.5 0ZM160.5 0L156 0 156-29.5 160.5-29.5 160.5 0ZM134.9 7.25L134.9 7.25Q136.69 7.25 137.65 8.2L137.65 8.2Q138.59 9.15 138.59 11.45L138.59 11.45 138.59 15.95 137.15 15.95 137.15 14.65Q136.4 16.15 134.25 16.15L134.25 16.15Q132.84 16.15 132.05 15.5L132.05 15.5Q131.25 14.85 131.25 13.8L131.25 13.8Q131.25 12.9 131.84 12.25L131.84 12.25Q132.4 11.6 133.4 11.2L133.4 11.2Q134.34 10.85 135.55 10.85L135.55 10.85Q136.59 10.85 137.44 10.95L137.44 10.95Q137.34 9.55 136.69 8.95L136.69 8.95Q136.05 8.35 134.8 8.35L134.8 8.35Q134.15 8.35 133.59 8.6L133.59 8.6Q133 8.85 132.5 9.3L132.5 9.3 131.84 8.45Q133.05 7.25 134.9 7.25ZM134.4 15.15L134.4 15.15Q135.8 15.15 136.59 14.3L136.59 14.3Q137.4 13.5 137.44 12L137.44 12Q136.59 11.85 135.65 11.85L135.65 11.85Q134.25 11.85 133.4 12.35L133.4 12.35Q132.59 12.8 132.59 13.75L132.59 13.75Q132.59 15.15 134.4 15.15ZM163.49 0L161.99 0 161.99-29.5 163.49-29.5 163.49 0ZM170.99 0L169.49 0 169.49-29.5 170.99-29.5 170.99 0ZM173.99 0L172.49 0 172.49-29.5 173.99-29.5 173.99 0ZM181.49 0L179.99 0 179.99-29.5 181.49-29.5 181.49 0ZM188.99 0L187.49 0 187.49-29.5 188.99-29.5 188.99 0ZM191.99 0L190.49 0 190.49-29.5 191.99-29.5 191.99 0ZM194.99 0L193.49 0 193.49-29.5 194.99-29.5 194.99 0ZM200.99 0L196.49 0 196.49-29.5 200.99-29.5 200.99 0ZM206.99 0L202.49 0 202.49-29.5 206.99-29.5 206.99 0ZM214.49 0L212.99 0 212.99-29.5 214.49-29.5 214.49 0ZM192.19 14.1L192.59 15.15Q191.39 16.1 189.89 16.1L189.89 16.1Q188.49 16.1 187.89 15.25L187.89 15.25Q187.29 14.35 187.29 12.45L187.29 12.45Q187.29 12.1 187.34 11.35L187.34 11.35 187.54 8.55 185.64 8.55 185.64 7.45 187.59 7.45 187.74 5.2 189.19 4.95 189.39 4.95 189.39 5.05Q189.29 5.2 189.24 5.35L189.24 5.35Q189.14 5.5 189.14 5.75L189.14 5.75 188.94 7.45 191.74 7.45 191.74 8.55 188.84 8.55 188.69 11.45Q188.64 12.2 188.64 12.4L188.64 12.4Q188.64 13.9 188.99 14.45L188.99 14.45Q189.34 14.95 190.09 14.95L190.09 14.95Q190.64 14.95 191.14 14.75L191.14 14.75Q191.59 14.55 192.19 14.1L192.19 14.1ZM217.49 0L215.99 0 215.99-29.5 217.49-29.5 217.49 0ZM227.99 0L223.49 0 223.49-29.5 227.99-29.5 227.99 0ZM230.99 0L229.49 0 229.49-29.5 230.99-29.5 230.99 0ZM236.99 0L232.49 0 232.49-29.5 236.99-29.5 236.99 0ZM239.99 0L238.49 0 238.49-29.5 239.99-29.5 239.99 0ZM242.99 0L241.49 0 241.49-29.5 242.99-29.5 242.99 0ZM250.49 0L248.99 0 248.99-29.5 250.49-29.5 250.49 0ZM256.49 0L251.99 0 251.99-29.5 256.49-29.5 256.49 0ZM259.49 0L257.99 0 257.99-29.5 259.49-29.5 259.49 0ZM265.49 0L260.99 0 260.99-29.5 265.49-29.5 265.49 0ZM250.34 15.95L253.49 10.05 250.39 4.35 251.79 4.35 254.24 8.75 256.64 4.35 257.94 4.35 254.99 10 258.29 15.95 256.84 15.95 254.24 11.35 251.74 15.95 250.34 15.95Z" opacity="1" transform="matrix(1,0,0,1,0,0)" fill="#336a86" class="wordmark-text-0" data-fill-palette-color="primary" id="text-0"></path></svg></g></svg></g></svg></g></svg></g><g transform="matrix(1,0,0,1,116.34329829864764,0)"><svg viewBox="0 0 162.8334034027047 162.8334034027047" height="162.8334034027047" width="162.8334034027047"><g><svg></svg></g><g id="icon-0"><svg viewBox="0 0 162.8334034027047 162.8334034027047" height="162.8334034027047" width="162.8334034027047"><g><path d="M0 81.417c0-44.965 36.452-81.417 81.417-81.417 44.965 0 81.417 36.452 81.416 81.417 0 44.965-36.452 81.417-81.416 81.416-44.965 0-81.417-36.452-81.417-81.416zM81.417 156.701c41.578 0 75.284-33.706 75.284-75.284 0-41.578-33.706-75.284-75.284-75.284-41.578 0-75.284 33.706-75.284 75.284 0 41.578 33.706 75.284 75.284 75.284z" data-fill-palette-color="accent" fill="#283132" stroke="transparent"></path></g><g transform="matrix(1,0,0,1,36.563425310142826,36.82490893268827)"><svg viewBox="0 0 89.70655278241905 89.18358553732817" height="89.18358553732817" width="89.70655278241905"><g><svg xmlns="http://www.w3.org/2000/svg" viewBox="20 20.173631984616488 60.018743579525974 59.668848995350714" x="0" y="0" height="89.18358553732817" width="89.70655278241905" class="icon-cg-0" data-fill-palette-color="accent" id="cg-0"><g data-name="Calque 2" fill="#283132" data-fill-palette-color="accent"><path d="M23.82 23.07A1.82 1.82 0 1 1 22 24.88 1.82 1.82 0 0 1 23.82 23.07Zm0 5.58a3.73 3.73 0 0 0 2-0.56c2.07 1.44 9.08 6.45 10.21 7.14a6.25 6.25 0 0 0 3.19 1.25c0.63 0 2 0.06 4.13 0.06A2.75 2.75 0 0 0 45.8 38a2.76 2.76 0 1 0-2.69-3.32c-1.94 0-3.26 0-3.82-0.06A3.81 3.81 0 0 1 37 33.71c-1-0.63-7.64-5.39-9.9-7A4 4 0 0 0 27.57 25a3.7 3.7 0 0 0-3.7-3.7 3.74 3.74 0 0 0-3.7 3.7A3.6 3.6 0 0 0 23.82 28.64Z" fill="#283132" data-fill-palette-color="accent"></path><path d="M22.13 44.61a1.82 1.82 0 1 1 1.82 1.82A1.78 1.78 0 0 1 22.13 44.61Zm5.39 0.94H33a2.71 2.71 0 0 0 2.57 1.82 2.76 2.76 0 0 0 0-5.51A2.71 2.71 0 0 0 33 43.67H27.52a3.76 3.76 0 0 0-3.57-2.76 3.7 3.7 0 0 0-3.7 3.7 3.74 3.74 0 0 0 3.7 3.7A3.52 3.52 0 0 0 27.52 45.55Z" fill="#283132" data-fill-palette-color="accent"></path><path d="M28.33 49.87a1.82 1.82 0 1 1-1.82 1.82A1.82 1.82 0 0 1 28.33 49.87Zm0 5.58a3.7 3.7 0 0 0 3.57-2.76H33a2.72 2.72 0 0 0 2.57 1.82 2.76 2.76 0 0 0 0-5.51A2.71 2.71 0 0 0 33 50.81H31.9a3.76 3.76 0 0 0-3.57-2.76 3.7 3.7 0 0 0 0 7.39Z" fill="#283132" data-fill-palette-color="accent"></path><path d="M23.7 75.24a1.82 1.82 0 1 1 1.82-1.82A1.78 1.78 0 0 1 23.7 75.24Zm1.06-5.39V63.4c0-2.94 1-3.57 2.69-3.57 2.07 0 4.38 0 5.39 0.06a2.73 2.73 0 0 0 2.63 1.82 2.76 2.76 0 1 0 0-5.51A2.71 2.71 0 0 0 32.9 58c-1.06 0-3.38-0.06-5.39-0.06-4.64 0-4.64 4.07-4.64 5.45v6.39A3.76 3.76 0 0 0 20 73.42a3.7 3.7 0 0 0 3.7 3.7 3.74 3.74 0 0 0 3.7-3.7A3.58 3.58 0 0 0 24.76 69.86Z" fill="#283132" data-fill-palette-color="accent"></path><path d="M75.06 75.24a1.82 1.82 0 1 1 1.82-1.82A1.82 1.82 0 0 1 75.06 75.24Zm0.81-5.45V63.4c0-1.31 0-5.45-4.57-5.45-2.07 0-4.38 0-5.39 0.06a2.71 2.71 0 0 0-2.57-1.82 2.76 2.76 0 1 0 0 5.51A2.85 2.85 0 0 0 66 59.9c1.06 0 3.38-0.06 5.39-0.06C73 59.83 74 60.4 74 63.4v6.45a3.7 3.7 0 0 0 1 7.26 3.71 3.71 0 0 0 0.82-7.33Z" fill="#283132" data-fill-palette-color="accent"></path><path d="M72.42 23.69A1.57 1.57 0 1 1 74 25.26 1.59 1.59 0 0 1 72.42 23.69ZM63.59 47.37A2.76 2.76 0 0 0 66 45.86h4.57c4.26 0 4.26-3.76 4.26-5V27a3.46 3.46 0 1 0-4.26-3.38A3.44 3.44 0 0 0 73.05 27v13.9c0 2.63-0.82 3.13-2.38 3.13H66.35a2.75 2.75 0 0 0-5.45 0.56A2.63 2.63 0 0 0 63.59 47.37Z" fill="#283132" data-fill-palette-color="accent"></path><path d="M76.37 50.13a1.82 1.82 0 1 1-1.82 1.82A1.78 1.78 0 0 1 76.37 50.13Zm-13 4.57A2.71 2.71 0 0 0 66 52.88h6.77a3.76 3.76 0 0 0 3.57 2.76A3.7 3.7 0 1 0 72.74 51H66a2.71 2.71 0 0 0-2.57-1.82 2.78 2.78 0 0 0-2.76 2.76A2.73 2.73 0 0 0 63.4 54.7Z" fill="#283132" data-fill-palette-color="accent"></path><rect x="40.48" y="39.98" width="18.04" height="23.93" rx="3.95" ry="3.95" fill="#283132" data-fill-palette-color="accent"></rect><path d="M40.48 24.45a1.82 1.82 0 1 1-1.82 1.82A1.86 1.86 0 0 1 40.48 24.45Zm0 5.58A3.7 3.7 0 0 0 44 27.33h6.26c0.69 0 1.31 0 1.57 0.25s0.31 0.44 0.31 1.25c0 1.13 0 2.63-0.06 3.82a2.76 2.76 0 1 0 3.76 2.57 2.76 2.76 0 0 0-1.94-2.63c0-1.19 0.06-2.63 0.06-3.76a3.32 3.32 0 0 0-0.82-2.57 3.69 3.69 0 0 0-2.88-0.75h-6.2A3.71 3.71 0 1 0 40.48 30Z" fill="#283132" data-fill-palette-color="accent"></path><path d="M35 76.18a1.82 1.82 0 1 1-1.82-1.82A1.78 1.78 0 0 1 35 76.18ZM45.8 66A2.71 2.71 0 0 0 43.3 67.6h-7c-1.31 0-4.07 0-4.07 3.7v1.25a3.68 3.68 0 0 0 0.88 7.27 3.74 3.74 0 0 0 3.7-3.7 3.7 3.7 0 0 0-2.69-3.57c0-0.37-0.06-0.82-0.06-1.25 0-1.69 0.56-1.82 2.19-1.82h6.83a2.69 2.69 0 0 0 2.63 2 2.78 2.78 0 0 0 2.76-2.76A2.69 2.69 0 0 0 45.8 66Z" fill="#283132" data-fill-palette-color="accent"></path><path d="M62.71 78a1.82 1.82 0 0 1-1.82-1.82 1.87 1.87 0 0 1 1.82-1.88 1.82 1.82 0 0 1 1.82 1.82A1.87 1.87 0 0 1 62.71 78Zm0.88-5.45V71.29c0-3.7-2.76-3.7-4.07-3.7H55.7A2.67 2.67 0 0 0 53.2 66a2.76 2.76 0 1 0 2.63 3.51h3.7c1.63 0 2.19 0.12 2.19 1.82a8.09 8.09 0 0 1-0.06 1.25 3.7 3.7 0 1 0 4.7 3.57A3.57 3.57 0 0 0 63.59 72.55Z" fill="#283132" data-fill-palette-color="accent"></path></g></svg></g></svg></g></svg></g></svg></g><g></g></svg></g><defs></defs></svg><rect width="371.83225458370686" height="247.2" fill="none" stroke="none" visibility="hidden"></rect></g></svg></g></svg>